<svg height='300px' width='300px'  fill="#102a43" xmlns="http://www.w3.org/2000/svg" data-name="Layer 1" viewBox="0 0 64 64" x="0px" y="0px"><title>1</title><path d="M64,61.08S64,61,64,61V27.75a.43.43,0,0,0,0-.05s0-.08,0-.12,0-.09,0-.13a.56.56,0,0,0,0-.12l-.06-.1,0-.06-.05-.05L63.67,27l0,0-10.8-8.61V13.16a1,1,0,0,0-1-1h-6.8L32.6,2.27a1,1,0,0,0-1.2,0L18.94,12.2h-6.8a1,1,0,0,0-1,1v5.22L.37,27s0,0,0,0l-.09.09,0,.05,0,.06-.06.1s0,.08,0,.12,0,.08,0,.13,0,.08,0,.12a.43.43,0,0,0,0,.05V61s0,.07,0,.11a1.06,1.06,0,0,0,0,.19.61.61,0,0,0,.09.18.42.42,0,0,0,0,.1s0,0,0,0a.71.71,0,0,0,.23.19l.1.07a1,1,0,0,0,.4.09H63a1,1,0,0,0,.4-.09l.1-.07a.71.71,0,0,0,.23-.19s0,0,.05,0a.42.42,0,0,0,0-.1.61.61,0,0,0,.09-.18A1.06,1.06,0,0,0,64,61.08Zm-62-31.4L21.67,44.36,1.94,59ZM23.3,45.57l8.12,6a.94.94,0,0,0,1.16,0l8.12-6L60.1,60H3.9Zm19-1.21L62.06,29.68V59ZM61.44,27.72l-8.61,6.41V20.86ZM32,4.27,42,12.2H22.05Zm18.89,9.86V35.57L32,49.63,13.11,35.57V14.13Zm-39.72,20L2.56,27.72l8.61-6.86Z"></path><path d="M22.1,20.22H41.9a1,1,0,0,0,0-1.94H22.1a1,1,0,0,0,0,1.94Z"></path><path d="M22.1,25.73H41.9a1,1,0,0,0,0-1.94H22.1a1,1,0,0,0,0,1.94Z"></path><path d="M22.1,31.23H41.9a1,1,0,0,0,0-1.94H22.1a1,1,0,0,0,0,1.94Z"></path><path d="M22.1,36.73H41.9a1,1,0,0,0,0-1.94H22.1a1,1,0,1,0,0,1.94Z"></path></svg>