<svg height='300px' width='300px'  fill="#102a43" xmlns="http://www.w3.org/2000/svg" data-name="Layer 1" viewBox="0 0 80 80" x="0px" y="0px"><title>video</title><path d="M72,69H23.71a7,7,0,0,1,0,4H72a2,2,0,0,0,0-4Z"></path><path d="M10,71a7.27,7.27,0,0,1,.29-2H8a2,2,0,0,0,0,4h2.29A7.27,7.27,0,0,1,10,71Z"></path><circle cx="17" cy="71" r="3"></circle><path d="M74,62H6a6,6,0,0,1-6-6V11A6,6,0,0,1,6,5H74a6,6,0,0,1,6,6V56A6,6,0,0,1,74,62ZM6,9a2,2,0,0,0-2,2V56a2,2,0,0,0,2,2H74a2,2,0,0,0,2-2V11a2,2,0,0,0-2-2Z"></path><path d="M32.21,24.71V42.18a3,3,0,0,0,4.84,2.36l11.17-8.73a3,3,0,0,0,0-4.73L37.05,22.35A3,3,0,0,0,32.21,24.71Z"></path></svg>