<svg height='300px' width='300px'  fill="#102a43" xmlns="http://www.w3.org/2000/svg" viewBox="0 0 36 36" x="0px" y="0px"><title>Монтажная область 76</title><path d="M27.98773,4.52732V2.05645A1.33163,1.33163,0,0,0,26.66241.72157H5.54235a5.55223,5.55223,0,0,0-5.52409,5.395.73578.73578,0,0,0-.01051.13961V29.16149a.71639.71639,0,0,0,.021.174,4.082,4.082,0,0,0-.021.40831,5.54027,5.54027,0,0,0,5.5346,5.5346H26.66241a1.32732,1.32732,0,0,0,1.32532-1.32627V22.25566a8.91033,8.91033,0,0,0,0-17.72834ZM26.31339,4.512a8.91257,8.91257,0,0,0,0,17.75893v1.93826H5.54235a5.52205,5.52205,0,0,0-3.86026,1.57585V6.25617A3.86444,3.86444,0,0,1,5.5414,2.39591l20.772.02773Zm-6.47075,8.87468a7.23212,7.23212,0,0,1,6.86184-7.2252c.11666-.00765.23236-.00765.34806-.00765.17882-.00192.36911.00765.54218.01721a7.23892,7.23892,0,0,1,.00287,14.44085c-.17116.0086-.35093.01817-.5221.01817-.12526-.00383-.24479.00095-.37579-.00861A7.23492,7.23492,0,0,1,19.84264,13.38671ZM5.5414,25.88261l20.772.02773v7.69375H5.54235a3.86074,3.86074,0,0,1-.00095-7.72148Z"></path><path d="M5.50506,32.49679H24.2948a.8367.8367,0,1,0,0-1.67339H5.50506a1.04228,1.04228,0,0,1,0-2.08456H24.2948a.8367.8367,0,1,0,0-1.67339H5.50506a2.71567,2.71567,0,1,0,0,5.43134Z"></path><path d="M27.71807,13.48138a2.50036,2.50036,0,0,0-1.50126,2.272.77263.77263,0,1,0,1.54525,0,.95377.95377,0,0,1,.58425-.85964,3.34582,3.34582,0,0,0-.57851-6.312h-.001a3.3475,3.3475,0,0,0-4.12131,3.255.77263.77263,0,0,0,1.54525,0,1.7941,1.7941,0,0,1,.678-1.40756,1.84269,1.84269,0,0,1,1.55386-.34233,1.78165,1.78165,0,0,1,1.31576,1.31672A1.80386,1.80386,0,0,1,27.71807,13.48138Z"></path><circle cx="27.00091" cy="17.91537" r="0.77263"></circle></svg>